HIERARCHY
ROOT pelvis
{
  OFFSET 0 100 0
  CHANNELS 6 Xposition Yposition Zposition Zrotation Xrotation Yrotation
  JOINT pelvis_right_femur
  {
    OFFSET -10.78128 -3.44521 -0.5502486
    CHANNELS 3 Zrotation Xrotation Yrotation
    JOINT right_femur_tibia
    {
      OFFSET -0.8047443 -44.0398 -0.1307829
      CHANNELS 3 Zrotation Xrotation Yrotation
      JOINT right_tibia_foot
      {
        OFFSET 3.006224 -47.83518 -5
        CHANNELS 3 Zrotation Xrotation Yrotation
        End Site
        {
          OFFSET 0 -5 15
        }
      }
    }
  }
  JOINT pelvis_left_femur
  {
    OFFSET 10.78128 -3.44521 -0.5502486
    CHANNELS 3 Zrotation Xrotation Yrotation
    JOINT left_femur_tibia
    {
      OFFSET 0.8047443 -44.0398 -0.1307829
      CHANNELS 3 Zrotation Xrotation Yrotation
      JOINT left_tibia_foot
      {
        OFFSET -4.370144 -48.10324 -4.275266
        CHANNELS 3 Zrotation Xrotation Yrotation
        End Site
        {
          OFFSET 0 -5 15
        }
      }
    }
  }
  JOINT pelvis_spine1
  {
    OFFSET 0 6.468898 -3.129235
    CHANNELS 3 Zrotation Xrotation Yrotation
    JOINT spine1
    {
      OFFSET 0 23.15396 4.99043
      CHANNELS 3 Zrotation Xrotation Yrotation
      JOINT spine2
      {
        OFFSET 0 20.79997 -5.064912
        CHANNELS 3 Zrotation Xrotation Yrotation
        JOINT neck
        {
          OFFSET 0 14.38658 9.616178
          CHANNELS 3 Zrotation Xrotation Yrotation
          End Site
          {
            OFFSET 0 20 0
          }
        }
      }
      JOINT right_manubrium
      {
        OFFSET -5.722621 16.35077 3.967754
        CHANNELS 3 Zrotation Xrotation Yrotation
        JOINT right_clavicle
        {
          OFFSET -13.16364 1.694482 -4.693211
          CHANNELS 3 Zrotation Xrotation Yrotation
          JOINT right_humerus
          {
            OFFSET -28.5034 -0.3100689 -2.792744
            CHANNELS 3 Zrotation Xrotation Yrotation
            JOINT right_radius
            {
              OFFSET -25.15693 0.02248979 -1.271978
              CHANNELS 3 Zrotation Xrotation Yrotation
              End Site
              {
                OFFSET -15 0 0
              }
            }
          }
        }
      }
      JOINT left_manubrium
      {
        OFFSET 5.722621 16.35077 3.967754
        CHANNELS 3 Zrotation Xrotation Yrotation
        JOINT left_clavicle
        {
          OFFSET 13.16364 1.694482 -4.693211
          CHANNELS 3 Zrotation Xrotation Yrotation
          JOINT left_humerus
          {
            OFFSET 29.39168 -1.063119 -2.237045
            CHANNELS 3 Zrotation Xrotation Yrotation
            JOINT left_radius
            {
              OFFSET 24.59957 -0.9528479 0.9047498
              CHANNELS 3 Zrotation Xrotation Yrotation
              End Site
              {
                OFFSET 15 -0 -0
              }
            }
          }
        }
      }
    }
  }
}
MOTION
Frames: 7
Frame Time: 0.0416666666667
0 103.5113 0 0.8524864 1.015012 0.804963 1.908353 -22.91144 8.314865 -0 36.54025 -0 2.745585 -14.10253 -6.186962 -6.539047 10.94923 -19.3744 0 -1.888102 0 -2.591861 -23.42846 19.33165 -4.356983 0.04001919 3.365686 2.185947 5.27326 -7.213634 1.61318 21.91151 8.408467 2.96428 -21.84224 10.53122 7.631785 -15.0463 9.943095 81.90643 38.69241 -16.41305 -0 0 15.21943 -12.35442 12.33711 8.498935 5.257432 -15.95747 -0.4123498 -89.82458 36.95803 15.65139 0 0 -21.84414 -6.045626 9.27359 23.01195
0.4984715 102.5917 3.314935 0.9042277 1.018355 1.663881 1.691563 -22.42103 8.445118 -0 37.80202 -0 3.049693 -14.17018 -6.199401 -6.643666 10.6267 -19.54484 0 -2.782402 0 -2.604595 -23.54773 19.50149 -4.466563 0.06762985 3.402567 2.128514 5.172417 -7.115556 1.634891 21.9401 8.445782 2.957749 -21.7781 10.59743 7.755568 -15.04862 9.899262 81.53875 38.84302 -15.97127 -0 0 15.4937 -12.4424 12.35021 8.635698 5.183945 -15.66668 -0.32151 -90.0589 37.27886 15.95456 0 0 -21.435 -6.38624 9.080301 23.49799
0.9899106 101.6911 6.791187 0.8144091 0.5819356 2.464441 1.92871 -22.75182 7.755337 -0 36.03614 -0 2.123566 -12.9574 -6.145652 -6.451365 11.16664 -18.80623 0 -0.1947432 0 -2.461964 -22.94309 19.08547 -4.187832 -0.0298143 3.298998 2.112954 5.664164 -7.235775 1.608987 21.9594 8.274781 2.960915 -21.68844 10.34546 7.21781 -15.13869 10.01838 82.65746 37.82335 -16.84951 -0 0 14.75729 -12.81524 12.24871 8.505903 5.328691 -16.43314 -0.7587742 -89.36492 35.83136 15.19949 0 0 -21.87543 -5.146518 9.653201 21.70898
1.460963 100.7581 10.26547 0.6608438 0.6988704 3.181558 2.34625 -23.87378 7.461289 -0 33.36811 -0 1.402727 -12.91642 -6.020285 -6.245306 11.84624 -18.60189 -0 0.7291806 -0 -2.195002 -22.85154 18.88364 -3.992201 -0.1335602 3.219426 2.249701 5.873013 -7.455559 1.543569 21.8759 8.213343 2.991057 -21.9103 10.21426 6.95874 -15.25697 10.11841 83.3486 37.55572 -17.68585 -0 0 14.33254 -12.53865 12.14706 8.219489 5.517001 -17.06226 -0.9322854 -89.02833 35.13712 14.78964 0 0 -22.68048 -4.342406 10.1542 20.57483
1.896628 99.76158 13.74364 0.4927441 0.8010753 3.814508 2.809712 -25.07949 7.15773 -0 30.44339 -0 0.6375155 -12.85879 -5.905365 -6.020016 12.58455 -18.34399 -0 1.98053 -0 -1.96459 -22.7122 18.62395 -3.76954 -0.2353972 3.134714 2.397246 6.099694 -7.693254 1.476831 21.78997 8.141994 3.019108 -22.1323 10.06906 6.676936 -15.35638 10.22543 84.10893 37.24438 -18.60717 -0 0 13.83298 -12.25715 12.05435 7.906378 5.711547 -17.74478 -1.122265 -88.64653 34.38277 14.30559 0 0 -23.57573 -3.473506 10.65426 19.35819
2.29015 98.70726 17.22606 0.3235606 0.9246672 4.362886 3.281414 -26.285 6.925445 -0 27.55038 -0 -0.04931459 -12.8979 -5.817167 -5.802093 13.30056 -18.10768 -0 3.298749 -0 -1.803194 -22.58221 18.35076 -3.55415 -0.3200233 3.058073 2.550301 6.288003 -7.927198 1.414743 21.70414 8.079363 3.043029 -22.35058 9.939571 6.435224 -15.41903 10.32366 84.80742 36.9982 -19.49986 -0 0 13.34302 -11.9498 11.98662 7.59142 5.889982 -18.37886 -1.280097 -88.29059 33.73876 13.8261 0 0 -24.48523 -2.701323 11.0799 18.2868
2.638626 97.61708 20.74443 0.1725015 0.9758228 4.829705 3.725786 -27.32649 6.720572 -0 24.9146 -0 -0.6471705 -12.85584 -5.780071 -5.60191 13.95144 -17.80226 -0 5.026057 -0 -1.772379 -22.36911 18.01852 -3.336347 -0.3759621 2.989286 2.680465 6.470367 -8.133493 1.368161 21.63933 8.009976 3.05569 -22.50052 9.812518 6.204062 -15.4182 10.41119 85.48294 36.71315 -20.34459 -0 0 12.8117 -11.73044 11.96004 7.306013 6.033018 -18.95816 -1.43936 -87.91071 33.1255 13.29239 0 0 -25.33732 -2.007645 11.40459 17.32795
